<svg id="visual" viewBox="0 0 900 600" width="900" height="600" xmlns="http://www.w3.org/2000/svg" xmlns:xlink="http://www.w3.org/1999/xlink" version="1.1"><rect x="0" y="0" width="900" height="600" fill="#000000"></rect><defs><linearGradient id="grad1_0" x1="33.3%" y1="100%" x2="100%" y2="0%"><stop offset="20%" stop-color="#fbae3c" stop-opacity="1"></stop><stop offset="80%" stop-color="#fbae3c" stop-opacity="1"></stop></linearGradient></defs><defs><linearGradient id="grad1_1" x1="33.3%" y1="100%" x2="100%" y2="0%"><stop offset="20%" stop-color="#fbae3c" stop-opacity="1"></stop><stop offset="80%" stop-color="#874d00" stop-opacity="1"></stop></linearGradient></defs><defs><linearGradient id="grad1_2" x1="33.3%" y1="100%" x2="100%" y2="0%"><stop offset="20%" stop-color="#000000" stop-opacity="1"></stop><stop offset="80%" stop-color="#874d00" stop-opacity="1"></stop></linearGradient></defs><defs><linearGradient id="grad2_0" x1="0%" y1="100%" x2="66.7%" y2="0%"><stop offset="20%" stop-color="#fbae3c" stop-opacity="1"></stop><stop offset="80%" stop-color="#fbae3c" stop-opacity="1"></stop></linearGradient></defs><defs><linearGradient id="grad2_1" x1="0%" y1="100%" x2="66.7%" y2="0%"><stop offset="20%" stop-color="#874d00" stop-opacity="1"></stop><stop offset="80%" stop-color="#fbae3c" stop-opacity="1"></stop></linearGradient></defs><defs><linearGradient id="grad2_2" x1="0%" y1="100%" x2="66.7%" y2="0%"><stop offset="20%" stop-color="#874d00" stop-opacity="1"></stop><stop offset="80%" stop-color="#000000" stop-opacity="1"></stop></linearGradient></defs><g transform="translate(900, 600)"><path d="M-216.3 0C-192.1 -19 -167.9 -37.9 -151.2 -49.1C-134.6 -60.3 -125.5 -63.8 -127.8 -92.9C-130.2 -121.9 -143.9 -176.6 -127.2 -175C-110.4 -173.4 -63.1 -115.7 -36.8 -113.2C-10.5 -110.7 -5.2 -163.5 0 -216.3L0 0Z" fill="#552100"></path><path d="M-144.2 0C-128.1 -12.6 -111.9 -25.3 -100.8 -32.8C-89.7 -40.2 -83.7 -42.5 -85.2 -61.9C-86.8 -81.3 -96 -117.7 -84.8 -116.7C-73.6 -115.6 -42 -77.1 -24.5 -75.5C-7 -73.8 -3.5 -109 0 -144.2L0 0Z" fill="#c07c00"></path><path d="M-72.1 0C-64 -6.3 -56 -12.6 -50.4 -16.4C-44.9 -20.1 -41.8 -21.3 -42.6 -31C-43.4 -40.6 -48 -58.9 -42.4 -58.3C-36.8 -57.8 -21 -38.6 -12.3 -37.7C-3.5 -36.9 -1.7 -54.5 0 -72.1L0 0Z" fill="#fbae3c"></path></g><g transform="translate(0, 0)"><path d="M216.3 0C214.2 22.8 212 45.5 205.7 66.9C199.4 88.2 189 108.1 172.3 125.2C155.7 142.3 132.8 156.6 108.2 148.9C83.5 141.1 57 111.3 38.6 118.9C20.3 126.5 10.1 171.4 0 216.3L0 0Z" fill="#552100"></path><path d="M144.2 0C142.8 15.2 141.4 30.3 137.2 44.6C133 58.8 126 72.1 114.9 83.5C103.8 94.9 88.6 104.4 72.1 99.2C55.7 94.1 38 74.2 25.8 79.3C13.5 84.3 6.8 114.3 0 144.2L0 0Z" fill="#c07c00"></path><path d="M72.1 0C71.4 7.6 70.7 15.2 68.6 22.3C66.5 29.4 63 36 57.4 41.7C51.9 47.4 44.3 52.2 36.1 49.6C27.8 47 19 37.1 12.9 39.6C6.8 42.2 3.4 57.1 0 72.1L0 0Z" fill="#fbae3c"></path></g></svg>