<svg id="visual" viewBox="0 0 1900 1080" width="1900" height="1080" xmlns="http://www.w3.org/2000/svg" xmlns:xlink="http://www.w3.org/1999/xlink" version="1.1"><rect x="0" y="0" width="1900" height="1080" fill="#000000"></rect><defs><linearGradient id="grad1_0" x1="43.2%" y1="100%" x2="100%" y2="0%"><stop offset="14.814814814814815%" stop-color="#fbae3c" stop-opacity="1"></stop><stop offset="85.18518518518519%" stop-color="#fbae3c" stop-opacity="1"></stop></linearGradient></defs><defs><linearGradient id="grad1_1" x1="43.2%" y1="100%" x2="100%" y2="0%"><stop offset="14.814814814814815%" stop-color="#fbae3c" stop-opacity="1"></stop><stop offset="85.18518518518519%" stop-color="#874d00" stop-opacity="1"></stop></linearGradient></defs><defs><linearGradient id="grad1_2" x1="43.2%" y1="100%" x2="100%" y2="0%"><stop offset="14.814814814814815%" stop-color="#000000" stop-opacity="1"></stop><stop offset="85.18518518518519%" stop-color="#874d00" stop-opacity="1"></stop></linearGradient></defs><defs><linearGradient id="grad2_0" x1="0%" y1="100%" x2="56.8%" y2="0%"><stop offset="14.814814814814815%" stop-color="#fbae3c" stop-opacity="1"></stop><stop offset="85.18518518518519%" stop-color="#fbae3c" stop-opacity="1"></stop></linearGradient></defs><defs><linearGradient id="grad2_1" x1="0%" y1="100%" x2="56.8%" y2="0%"><stop offset="14.814814814814815%" stop-color="#874d00" stop-opacity="1"></stop><stop offset="85.18518518518519%" stop-color="#fbae3c" stop-opacity="1"></stop></linearGradient></defs><defs><linearGradient id="grad2_2" x1="0%" y1="100%" x2="56.8%" y2="0%"><stop offset="14.814814814814815%" stop-color="#874d00" stop-opacity="1"></stop><stop offset="85.18518518518519%" stop-color="#000000" stop-opacity="1"></stop></linearGradient></defs><g transform="translate(1900, 1080)"><path d="M-432 0C-340.8 -13.6 -249.7 -27.1 -254.9 -82.8C-260.1 -138.5 -361.6 -236.4 -349.5 -253.9C-337.4 -271.5 -211.7 -208.7 -161.1 -221.7C-110.4 -234.6 -134.8 -323.2 -120.5 -370.9C-106.2 -418.6 -53.1 -425.3 0 -432L0 0Z" fill="#552100"></path><path d="M-288 0C-227.2 -9 -166.5 -18.1 -169.9 -55.2C-173.4 -92.3 -241.1 -157.6 -233 -169.3C-224.9 -181 -141.1 -139.2 -107.4 -147.8C-73.6 -156.4 -89.9 -215.5 -80.3 -247.3C-70.8 -279.1 -35.4 -283.5 0 -288L0 0Z" fill="#c07c00"></path><path d="M-144 0C-113.6 -4.5 -83.2 -9 -85 -27.6C-86.7 -46.2 -120.5 -78.8 -116.5 -84.6C-112.5 -90.5 -70.6 -69.6 -53.7 -73.9C-36.8 -78.2 -44.9 -107.7 -40.2 -123.6C-35.4 -139.5 -17.7 -141.8 0 -144L0 0Z" fill="#fbae3c"></path></g><g transform="translate(0, 0)"><path d="M432 0C447.4 59.5 462.8 118.9 410.9 133.5C358.9 148.1 239.7 117.8 212 154C184.3 190.2 248.1 292.8 245.7 338.2C243.3 383.5 174.7 371.5 122.7 377.6C70.7 383.7 35.3 407.8 0 432L0 0Z" fill="#552100"></path><path d="M288 0C298.3 39.6 308.5 79.3 273.9 89C239.3 98.7 159.8 78.5 141.3 102.7C122.8 126.8 165.4 195.2 163.8 225.4C162.2 255.7 116.4 247.7 81.8 251.7C47.1 255.8 23.6 271.9 0 288L0 0Z" fill="#c07c00"></path><path d="M144 0C149.1 19.8 154.3 39.6 137 44.5C119.6 49.4 79.9 39.3 70.7 51.3C61.4 63.4 82.7 97.6 81.9 112.7C81.1 127.8 58.2 123.8 40.9 125.9C23.6 127.9 11.8 135.9 0 144L0 0Z" fill="#fbae3c"></path></g></svg>